<?xml version="1.0" encoding="utf-8"?>
<!-- Generator: Adobe Illustrator 21.0.0, SVG Export Plug-In . SVG Version: 6.00 Build 0)  -->
<svg version="1.1" id="图层_1" xmlns="http://www.w3.org/2000/svg" xmlns:xlink="http://www.w3.org/1999/xlink" x="0px" y="0px"
	 viewBox="0 0 500 500" style="enable-background:new 0 0 500 500;" xml:space="preserve" width="200" height="200">
<style type="text/css">
	.st0{clip-path:url(#SVGID_2_);fill:#6065BC;}
	.st1{fill:#FFFFFF;}
</style>
<g>
	<defs>
		<rect id="SVGID_1_" x="14" y="13.6" width="475.1" height="475.6"/>
	</defs>
	<clipPath id="SVGID_2_">
		<use xlink:href="#SVGID_1_"  style="overflow:visible;"/>
	</clipPath>
	<path class="st0" d="M13.9,251.2c0,131.1,106.3,237.3,237.3,237.3c131.1,0,237.3-106.3,237.3-237.3
		c0-131.1-106.3-237.3-237.3-237.3C120.2,13.9,13.9,120.1,13.9,251.2L13.9,251.2z M13.9,251.2"/>
</g>
<g>
	<g>
		<path class="st1" d="M295.7,345.6l-39.7,22.6v-101l39.7-22.6V345.6z M247,368.2l-39.7-22.6v-101l39.7,22.6V368.2z M303.8,237
			l-51.3-29.1h-2L199.3,237c-0.5,0.5-0.5,0.5-0.5,1.5v109.5c0,1.5,0.5,3,2,4l48.7,27.1c0.5,0.5,1.5,0.5,2,0.5c0.5,0,1.5,0,2-0.5
			l48.2-27.6c1.5-0.5,2-2,2-4V239.1C304.3,238.1,304.3,237.6,303.8,237L303.8,237z M199.3,154.6l51.3,29.1h1.5l51.3-29.1
			c0.5-0.5,0.5-0.5,0.5-1.5c0-1-0.5-1.5-0.5-1.5L252,123h-2l-51.3,29.1c-0.5,0.5-0.5,0.5-0.5,1.5
			C198.8,154.1,198.8,154.6,199.3,154.6L199.3,154.6z M199.3,154.6"/>
		<path class="st1" d="M371.6,303.4l-39.7,22.1V225l39.7-22.6V303.4z M380.2,196.3C380.2,195.8,380.2,195.8,380.2,196.3
			C380.2,195.8,380.2,195.8,380.2,196.3C380.2,195.8,380.2,195.8,380.2,196.3v-0.5c0-0.5-0.5-0.5-0.5-1.5l-48.2-27.1l-3.5-1.5h-1.5
			l-6.5,3l-45.2,25.1c-0.5,0-0.5,0.5-0.5,1.5v0.5c0,0.5,0.5,1.5,0.5,1.5l47.7,27.1v111.1l2,1.5c0.5,0.5,1.5,0.5,2,0.5
			c0.5,0,1.5,0,2-0.5l48.7-27.1c1.5-0.5,2-2,2-4C378.7,305.9,380.2,196.3,380.2,196.3L380.2,196.3z M171.6,325l-39.7-22.6V201.9
			l39.7,22.6V325z M228.9,195.8c0-0.5-0.5-1.5-0.5-1.5l-51.3-28.6h-2l-51.8,28.6c0,0-0.5,0.5-0.5,1.5v109.5c0,1.5,0.5,3,2,4
			l48.7,27.1c0.5,0.5,1.5,0.5,2,0.5c0.5,0,1.5,0,2-0.5l2-1.5V224.5l47.7-27.1C228.4,196.8,228.9,196.3,228.9,195.8L228.9,195.8z
			 M228.9,195.8"/>
	</g>
</g>
</svg>
