<?xml version="1.0" standalone="no"?><!DOCTYPE svg PUBLIC "-//W3C//DTD SVG 1.1//EN" "http://www.w3.org/Graphics/SVG/1.1/DTD/svg11.dtd"><svg t="1562926225732" class="icon" viewBox="0 0 1024 1024" version="1.1" xmlns="http://www.w3.org/2000/svg" p-id="1203" xmlns:xlink="http://www.w3.org/1999/xlink" width="200" height="200"><defs><style type="text/css"></style></defs><path d="M512 0C231.575972 0 4.824499 226.751472 4.824499 507.175501s226.751472 507.175501 507.175501 507.1755c279.820966 0 507.175501-226.751472 507.175501-507.1755S791.820966 0 512 0z m-0.603062 217.102473c39.80212 0 72.367491 32.565371 72.367491 72.367492s-32.565371 72.367491-72.367491 72.367491-72.367491-32.565371-72.367492-72.367491 32.565371-72.367491 72.367492-72.367492z m-217.102474 290.073028v-36.183746h199.010601v-54.275618h36.183745v54.275618h199.010601v90.459364h-36.183746v-54.275618h-361.837455v54.275618h-36.183746v-54.275618z m18.694935 235.194346c-39.80212 0-72.367491-32.565371-72.367491-72.367491s32.565371-72.367491 72.367491-72.367491 72.367491 32.565371 72.367491 72.367491-32.565371 72.367491-72.367491 72.367491z m198.407539 0c-39.80212 0-72.367491-32.565371-72.367492-72.367491s32.565371-72.367491 72.367492-72.367491 72.367491 32.565371 72.367491 72.367491c0.603062 39.80212-31.962309 72.367491-72.367491 72.367491z m199.613663 0c-39.80212 0-72.367491-32.565371-72.367491-72.367491s32.565371-72.367491 72.367491-72.367491 72.367491 32.565371 72.367491 72.367491-32.565371 72.367491-72.367491 72.367491z m0 0" fill="#1296db" p-id="1204"></path></svg>