<?xml version="1.0" standalone="no"?><!DOCTYPE svg PUBLIC "-//W3C//DTD SVG 1.1//EN" "http://www.w3.org/Graphics/SVG/1.1/DTD/svg11.dtd"><svg t="1562926217648" class="icon" viewBox="0 0 1024 1024" version="1.1" xmlns="http://www.w3.org/2000/svg" p-id="1075" xmlns:xlink="http://www.w3.org/1999/xlink" width="200" height="200"><defs><style type="text/css"></style></defs><path d="M204.334 616.03c-34.082-109.986-7.685-234.841 79.235-321.762 60.33-60.329 138.937-91.506 218.16-93.543l25.694-40.785a367.808 367.808 0 0 0-17.384-0.412c-46.904 0-92.631 8.9-135.913 26.45-44.82 18.177-85.027 44.873-119.5 79.347s-61.171 74.68-79.346 119.5c-17.55 43.281-26.45 89.009-26.45 135.913 0 44.616 8.07 88.162 23.96 129.556l31.544-34.265zM832.815 531.81c-2.039 79.224-33.215 157.83-93.544 218.159-86.92 86.92-211.776 113.317-321.761 79.235l-34.264 31.544c41.393 15.89 84.94 23.96 129.555 23.96 46.905 0 92.632-8.9 135.913-26.45 44.82-18.176 85.026-44.872 119.5-79.346 34.475-34.474 61.17-74.68 79.347-119.5 17.55-43.282 26.45-89.01 26.45-135.914 0-5.814-0.138-11.609-0.411-17.384l-40.785 25.695z" fill="#d81e06" p-id="1076"></path><path d="M461.632 412.395C437.03 454.363 430.517 526 430.517 526l21.172 21.172c24.067-39.61 98.22-123.198 98.22-123.198 68.741-77.423 104.209-53.387 104.209-53.387l45.363-45.363c-0.194-0.191-0.393-0.379-0.586-0.572-36.409-36.408-36.409-95.438 0-131.846 36.408-36.408 95.437-36.408 131.845 0 0.194 0.194 0.381 0.392 0.572 0.587L958.926 65.777C677.642 53.457 545.42 276.215 545.42 276.215 436.013 284.028 317.638 401.54 317.638 401.54c76.7-15.918 143.994 10.854 143.994 10.854zM831.91 193.975c36.407 36.408 36.407 95.437 0 131.846-36.41 36.408-95.439 36.408-131.847 0-0.193-0.194-0.38-0.392-0.572-0.587l-45.363 45.364s24.036 35.467-53.387 104.208c0 0-83.589 74.154-123.198 98.22l21.172 21.172s71.636-6.512 113.604-31.115c0 0 26.773 67.294 10.854 143.994 0 0 117.513-118.376 125.326-227.784 0 0 222.759-132.22 210.438-413.505L831.323 193.403c0.194 0.191 0.393 0.378 0.586 0.572z" fill="#d81e06" p-id="1077"></path><path d="M693.238 260.43a70.831 70.831 0 1 0 144.963 0 70.831 70.831 0 1 0-144.963 0zM434.783 589.27c45.369-27.122 110.161-78.377 144.091-107.87 84.604-73.542 65.574-96.301 62.606-99.049-2.748-2.968-25.507-21.999-99.048 62.606-29.494 33.93-80.749 98.724-107.87 144.09l-0.888 0.89c0.181-0.107 0.37-0.224 0.553-0.333-0.109 0.183-0.225 0.37-0.333 0.553l0.89-0.887zM417.493 544.811L64.383 945.678l369.753-384.224zM460.93 588.25L76.707 958.002l400.867-353.11z" fill="#d81e06" p-id="1078"></path></svg>