<?xml version="1.0" encoding="utf-8"?>
<!-- Generator: Adobe Illustrator 21.0.0, SVG Export Plug-In . SVG Version: 6.00 Build 0)  -->
<svg version="1.1" id="图层_1" xmlns="http://www.w3.org/2000/svg" xmlns:xlink="http://www.w3.org/1999/xlink" x="0px" y="0px"
	 viewBox="0 0 500 500" style="enable-background:new 0 0 500 500;" xml:space="preserve" width="200" height="200">
<style type="text/css">
	.st0{clip-path:url(#SVGID_2_);fill:#4DAFB2;}
	.st1{clip-path:url(#SVGID_4_);fill:#FFFFFF;}
	.st2{fill:#FFFFFF;}
	.st3{clip-path:url(#SVGID_6_);fill:#FFFFFF;}
	.st4{clip-path:url(#SVGID_8_);fill:#FFFFFF;}
	.st5{clip-path:url(#SVGID_10_);fill:#FFFFFF;}
</style>
<g>
	<defs>
		<rect id="SVGID_1_" x="1.2" y="1" width="497.5" height="498"/>
	</defs>
	<clipPath id="SVGID_2_">
		<use xlink:href="#SVGID_1_"  style="overflow:visible;"/>
	</clipPath>
	<path class="st0" d="M1.1,249.9c0,137.3,111.3,248.6,248.6,248.6c137.3,0,248.6-111.3,248.6-248.6c0-137.3-111.3-248.6-248.6-248.6
		C112.4,1.3,1.1,112.6,1.1,249.9L1.1,249.9z M1.1,249.9"/>
</g>
<g>
	<g>
		<defs>
			<rect id="SVGID_3_" x="118.4" y="114.5" width="263.1" height="271"/>
		</defs>
		<clipPath id="SVGID_4_">
			<use xlink:href="#SVGID_3_"  style="overflow:visible;"/>
		</clipPath>
		<path class="st1" d="M123.6,308.1c-1.4,0-2.7-0.5-3.7-1.6c-2-2-2-5.3,0.1-7.3c7-7,16.1-11,25.5-11.6c9.6-0.5,18.5,2.8,24.8,9.3
			c2,2,2,5.3-0.1,7.3c-2,2-5.3,2-7.3-0.1c-4.3-4.3-10.3-6.6-16.8-6.2c-6.8,0.4-13.5,3.4-18.8,8.6
			C126.1,307.6,124.9,308.1,123.6,308.1L123.6,308.1z M123.6,308.1"/>
	</g>
	<path class="st2" d="M186.7,314.7c-8.9,0-16.9-3.2-22.9-9.3c-2-2-2-5.3,0.1-7.3c2-2,5.3-2,7.3,0.1c4.3,4.3,10.3,6.6,16.8,6.2
		c6.8-0.4,13.5-3.4,18.8-8.6c2-2,5.3-2,7.3,0.1c2,2,2,5.3-0.1,7.3c-7,7-16.1,11-25.5,11.6C187.9,314.7,187.3,314.7,186.7,314.7
		L186.7,314.7z M186.7,314.7"/>
	<path class="st2" d="M207.2,307.5c-1.4,0-2.7-0.5-3.7-1.6c-2-2-2-5.3,0.1-7.3c7-7,16.1-11,25.5-11.6c9.6-0.5,18.5,2.8,24.8,9.3
		c2,2,2,5.3-0.1,7.3c-2,2-5.3,2-7.3-0.1c-4.3-4.3-10.3-6.6-16.8-6.2c-6.8,0.4-13.5,3.4-18.8,8.6C209.8,307,208.6,307.5,207.2,307.5
		L207.2,307.5z M207.2,307.5"/>
	<path class="st2" d="M267.8,311.3c-8.5,0-16.6-3-22.7-9.1c-2-2-2-5.3,0-7.3c2-2,5.3-2,7.3,0c9.1,9.1,25.1,7.8,35.6-2.7
		c2-2,5.3-2,7.3,0c2,2,2,5.3,0,7.3C287.6,307.4,277.5,311.3,267.8,311.3L267.8,311.3z M267.8,311.3"/>
	<g>
		<defs>
			<rect id="SVGID_5_" x="118.4" y="114.5" width="263.1" height="271"/>
		</defs>
		<clipPath id="SVGID_6_">
			<use xlink:href="#SVGID_5_"  style="overflow:visible;"/>
		</clipPath>
		<path class="st3" d="M289.2,303.4c-1.4,0-2.8-0.5-3.9-1.7c-1.9-2.1-1.8-5.4,0.3-7.3c7.3-6.6,16.5-10.4,25.9-10.5
			c9.6-0.1,18.3,3.4,24.4,10.2c1.9,2.1,1.8,5.4-0.3,7.3c-2.1,1.9-5.4,1.8-7.3-0.3c-4.1-4.5-10-6.9-16.6-6.8
			c-6.9,0.1-13.7,2.9-19.1,7.8C291.6,302.9,290.4,303.4,289.2,303.4L289.2,303.4z M289.2,303.4"/>
		<path class="st3" d="M353.5,312.2c-9.6,0-18.2-3.4-24.2-10.3c-1.9-2.2-1.7-5.3,0.5-7.2c2.2-1.9,5.4-1.8,7.3,0.3
			c4.1,4.5,9.9,7,16.5,7h0.1c6.9,0,13.7-2.6,19.2-7.4c2.2-1.9,5.4-1.6,7.3,0.5c1.9,2.2,1.7,5.2-0.5,7.1c-7.4,6.6-16.7,9.9-26,9.9
			H353.5z M353.5,312.2"/>
		<path class="st3" d="M123.6,343.3c-1.4,0-2.7-0.5-3.7-1.6c-2-2-2-5.3,0.1-7.3c7-7,16.1-11,25.5-11.6c9.6-0.5,18.5,2.8,24.8,9.3
			c2,2,2,5.3-0.1,7.3c-2,2-5.3,2-7.3-0.1c-4.3-4.3-10.3-6.6-16.8-6.2c-6.8,0.4-13.5,3.4-18.8,8.6
			C126.1,342.9,124.9,343.3,123.6,343.3L123.6,343.3z M123.6,343.3"/>
	</g>
	<path class="st2" d="M186.7,350c-8.9,0-16.9-3.2-22.9-9.3c-2-2-2-5.3,0.1-7.3c2-2,5.3-2,7.3,0.1c4.3,4.3,10.3,6.6,16.8,6.2
		c6.8-0.4,13.5-3.4,18.8-8.6c2-2,5.3-2,7.3,0.1c2,2,2,5.3-0.1,7.3c-7,7-16.1,11-25.5,11.6C187.9,350,187.3,350,186.7,350L186.7,350z
		 M186.7,350"/>
	<path class="st2" d="M207.2,342.7c-1.4,0-2.7-0.5-3.7-1.6c-2-2-2-5.3,0.1-7.3c7-7,16.1-11,25.5-11.6c9.6-0.5,18.5,2.8,24.8,9.3
		c2,2,2,5.3-0.1,7.3c-2,2-5.3,2-7.3-0.1c-4.3-4.3-10.3-6.6-16.8-6.2c-6.8,0.4-13.5,3.4-18.8,8.6
		C209.8,342.2,208.6,342.7,207.2,342.7L207.2,342.7z M207.2,342.7"/>
	<path class="st2" d="M267.8,346.6c-8.5,0-16.6-3-22.7-9.1c-2-2-2-5.3,0-7.3c2-2,5.3-2,7.3,0c9.1,9.1,25.1,7.8,35.6-2.7
		c2-2,5.3-2,7.3,0c2,2,2,5.3,0,7.3C287.6,342.6,277.5,346.6,267.8,346.6L267.8,346.6z M267.8,346.6"/>
	<g>
		<defs>
			<rect id="SVGID_7_" x="118.4" y="114.5" width="263.1" height="271"/>
		</defs>
		<clipPath id="SVGID_8_">
			<use xlink:href="#SVGID_7_"  style="overflow:visible;"/>
		</clipPath>
		<path class="st4" d="M289.2,338.6c-1.4,0-2.8-0.5-3.9-1.7c-1.9-2.1-1.8-5.4,0.3-7.3c7.3-6.6,16.5-10.4,25.9-10.5
			c9.6-0.1,18.3,3.4,24.4,10.2c1.9,2.1,1.8,5.4-0.3,7.3c-2.1,1.9-5.4,1.8-7.3-0.3c-4.1-4.5-10-6.9-16.6-6.8
			c-6.9,0.1-13.7,2.9-19.1,7.8C291.6,338.1,290.4,338.6,289.2,338.6L289.2,338.6z M289.2,338.6"/>
		<path class="st4" d="M353.5,348c-9.6,0-18.2-3.8-24.2-10.6c-1.9-2.2-1.7-5.4,0.5-7.3c2.2-1.9,5.4-1.6,7.3,0.5
			c4.1,4.5,9.9,7.2,16.5,7.2h0.1c6.9,0,13.7-2.8,19.2-7.7c2.2-1.9,5.4-1.8,7.3,0.4c1.9,2.2,1.7,5.4-0.5,7.3
			c-7.4,6.6-16.7,10.2-26,10.2H353.5z M353.5,348"/>
		<path class="st4" d="M123.6,378.6c-1.4,0-2.7-0.5-3.7-1.6c-2-2-2-5.3,0.1-7.3c7-7,16.1-11,25.5-11.6c9.6-0.5,18.5,2.8,24.8,9.3
			c2,2,2,5.3-0.1,7.3c-2,2-5.3,2-7.3-0.1c-4.3-4.3-10.3-6.6-16.8-6.2c-6.8,0.4-13.5,3.4-18.8,8.6
			C126.1,378.1,124.9,378.6,123.6,378.6L123.6,378.6z M123.6,378.6"/>
	</g>
	<path class="st2" d="M186.7,385.2c-8.9,0-16.9-3.2-22.9-9.3c-2-2-2-5.3,0.1-7.3c2-2,5.3-2,7.3,0.1c4.3,4.3,10.3,6.6,16.8,6.2
		c6.8-0.4,13.5-3.4,18.8-8.6c2-2,5.3-2,7.3,0.1c2,2,2,5.3-0.1,7.3c-7,7-16.1,11-25.5,11.6C187.9,385.2,187.3,385.2,186.7,385.2
		L186.7,385.2z M186.7,385.2"/>
	<path class="st2" d="M207.2,377.9c-1.4,0-2.7-0.5-3.7-1.6c-2-2-2-5.3,0.1-7.3c7-7,16.1-11,25.5-11.6c9.6-0.5,18.5,2.8,24.8,9.3
		c2,2,2,5.3-0.1,7.3c-2,2-5.3,2-7.3-0.1c-4.3-4.3-10.3-6.6-16.8-6.2c-6.8,0.4-13.5,3.4-18.8,8.6
		C209.8,377.5,208.6,377.9,207.2,377.9L207.2,377.9z M207.2,377.9"/>
	<path class="st2" d="M267.8,381.8c-8.5,0-16.6-3-22.7-9.1c-2-2-2-5.3,0-7.3c2-2,5.3-2,7.3,0c9.1,9.1,25.1,7.8,35.6-2.7
		c2-2,5.3-2,7.3,0c2,2,2,5.3,0,7.3C287.6,377.8,277.5,381.8,267.8,381.8L267.8,381.8z M267.8,381.8"/>
	<g>
		<defs>
			<rect id="SVGID_9_" x="118.4" y="114.5" width="263.1" height="271"/>
		</defs>
		<clipPath id="SVGID_10_">
			<use xlink:href="#SVGID_9_"  style="overflow:visible;"/>
		</clipPath>
		<path class="st5" d="M289.2,373.8c-1.4,0-2.8-0.5-3.9-1.7c-1.9-2.1-1.8-5.4,0.3-7.3c7.3-6.6,16.5-10.4,25.9-10.5
			c9.6-0.1,18.3,3.4,24.4,10.2c1.9,2.1,1.8,5.4-0.3,7.3c-2.1,1.9-5.4,1.8-7.3-0.3c-4.1-4.5-10-6.9-16.6-6.8
			c-6.9,0.1-13.7,2.9-19.1,7.8C291.6,373.3,290.4,373.8,289.2,373.8L289.2,373.8z M289.2,373.8"/>
		<path class="st5" d="M353.5,383.2c-9.6,0-18.2-3.7-24.2-10.5c-1.9-2.2-1.7-5.4,0.5-7.3c2.2-1.9,5.4-2,7.3,0.2
			c4.1,4.5,9.9,6.8,16.5,6.8h0.1c6.9,0,13.7-2.5,19.2-7.4c2.2-1.9,5.4-1.6,7.3,0.5c1.9,2.2,1.7,5.5-0.5,7.4
			c-7.4,6.6-16.7,10.3-26,10.3H353.5z M353.5,383.2"/>
	</g>
	<path class="st2" d="M197.6,266.2c-1.1,0-2.2-0.3-3.2-1l-1.4-0.9l-0.6-0.9c-8-11.7-12.2-25.4-12.2-39.6c0-38.6,31.4-70,70-70
		c38.6,0,70,31.4,70,70c0,11.6-7.1,30.2-7.9,32.3l-0.3,0.7l-0.8,1.1c-1.9,2.6-5.5,3.1-8.1,1.2c-2.5-1.9-3.1-5.4-1.4-8
		c2.2-5.6,6.8-19.6,6.8-27.3c0-32.2-26.2-58.4-58.4-58.4c-32.2,0-58.4,26.2-58.4,58.4c0,11.6,3.3,22.7,9.7,32.2
		c2.2,1.9,2.6,5.1,0.9,7.6C201.3,265.4,199.5,266.2,197.6,266.2L197.6,266.2z M197.6,266.2"/>
	<path class="st2" d="M249.9,143.2c-3.2,0-6.1-2.6-6.1-5.8v-16.8c0-3.2,2.8-5.8,6.1-5.8c3.2,0,6.1,2.6,6.1,5.8v16.8
		C256,140.5,253.1,143.2,249.9,143.2L249.9,143.2z M249.9,143.2"/>
	<path d="M326.3,156.9l-11.9,11.9L326.3,156.9z M326.3,156.9"/>
	<path class="st2" d="M314.4,174.6c-1.5,0-3-0.5-4.1-1.7c-2.3-2.3-2.3-6,0-8.2l11.9-11.9c2.3-2.3,5.9-2.3,8.2,0c2.3,2.3,2.3,6,0,8.3
		l-11.9,11.9C317.4,174.1,315.9,174.6,314.4,174.6L314.4,174.6z M314.4,174.6"/>
	<path class="st2" d="M353,223.6h-16.8c-3.2,0-5.8-2.2-5.8-5.4c0-3.2,2.6-5.4,5.8-5.4H353c3.2,0,5.8,2.2,5.8,5.4
		C358.8,221.4,356.2,223.6,353,223.6L353,223.6z M353,223.6"/>
	<path class="st2" d="M163,223.6h-16.8c-3.2,0-5.8-2.2-5.8-5.4c0-3.2,2.6-5.4,5.8-5.4H163c3.2,0,5.8,2.2,5.8,5.4
		C168.8,221.4,166.2,223.6,163,223.6L163,223.6z M163,223.6"/>
	<path d="M186,168.8l-11.9-11.9L186,168.8z M186,168.8"/>
	<path class="st2" d="M186,174.6c-1.5,0-3-0.5-4.1-1.7L170,161c-2.3-2.3-2.3-6,0-8.3c2.3-2.3,6-2.3,8.2,0l11.9,11.9
		c2.3,2.3,2.3,6,0,8.2C189,174.1,187.5,174.6,186,174.6L186,174.6z M186,174.6"/>
</g>
</svg>
