<?xml version="1.0" standalone="no"?><!DOCTYPE svg PUBLIC "-//W3C//DTD SVG 1.1//EN" "http://www.w3.org/Graphics/SVG/1.1/DTD/svg11.dtd"><svg t="1562926230323" class="icon" viewBox="0 0 1024 1024" version="1.1" xmlns="http://www.w3.org/2000/svg" p-id="1329" xmlns:xlink="http://www.w3.org/1999/xlink" width="200" height="200"><defs><style type="text/css"></style></defs><path d="M512 1024C229.248 1024 0 794.752 0 512S229.248 0 512 0s512 229.248 512 512-229.248 512-512 512zM324.352 559.36a10.453333 10.453333 0 0 1 3.797333-13.653333l166.826667-97.92v149.12c0 8.789333 7.466667 16.213333 16.256 16.213333a15.786667 15.786667 0 0 0 15.957333-15.914667v-151.253333l170.410667 100.906667a10.24 10.24 0 0 1 4.266667 13.226666l-63.786667 142.506667-1.578667 0.298667c-18.688 3.498667-36.693333 9.941333-55.04 16.768l-1.237333 0.426666c-23.722667 8.746667-46.165333 16.981333-68.394667 16.981334-22.869333 0-44.544-9.045333-65.493333-17.749334-13.184-5.546667-29.610667-12.458667-46.549333-16.128l-1.408-0.298666-74.026667-143.530667z m38.869333-185.6h298.453334v114.773333l-140.8-83.413333a15.701333 15.701333 0 0 0-16.213334 0l-141.44 82.773333V373.717333z m89.984-31.914667V288h118.485334v53.845333h-118.485334zM213.333333 752.981333c0 8.96 6.997333 15.957333 15.914667 15.957334 44.288 0 71.381333-12.202667 95.317333-22.954667l1.024-0.469333c16.512-7.210667 30.72-13.44 48-13.44 19.754667 0 39.338667 8.106667 60.074667 16.64 23.296 9.6 49.066667 20.224 78.506667 20.224 28.501333 0 55.04-9.898667 80.725333-19.456l1.28-0.426667c23.381333-8.746667 45.525333-16.981333 67.114667-16.981333 19.498667 0 34.261333 6.528 52.992 15.744 20.949333 10.026667 44.714667 21.418667 80.469333 21.418666a15.957333 15.957333 0 0 0 0-31.872c-28.245333 0-47.018667-8.96-66.858667-18.432l-1.152-0.512c-14.762667-6.954667-30.037333-14.165333-48.725333-17.024l-4.010667-0.597333 57.216-127.786667c8.704-19.626667 1.28-42.88-17.194666-54.058666l-20.181334-12.074667V357.205333a15.786667 15.786667 0 0 0-15.957333-15.957333H604.16V271.786667A15.786667 15.786667 0 0 0 590.506667 256h-155.904a15.701333 15.701333 0 0 0-13.226667 15.786667v69.76H347.306667a15.786667 15.786667 0 0 0-15.914667 15.957333v149.077333l-19.029333 11.178667a42.496 42.496 0 0 0-16.341334 56.021333l65.365334 126.976-4.266667 0.64c-16.853333 2.688-30.72 8.874667-45.397333 15.488l-0.768 0.341334c-21.930667 9.728-44.629333 19.84-81.706667 19.84a15.786667 15.786667 0 0 0-15.914667 15.914666z" fill="#83c6c2" p-id="1330"></path></svg>