<?xml version="1.0" standalone="no"?><!DOCTYPE svg PUBLIC "-//W3C//DTD SVG 1.1//EN" "http://www.w3.org/Graphics/SVG/1.1/DTD/svg11.dtd"><svg t="1562925352941" class="icon" viewBox="0 0 1024 1024" version="1.1" xmlns="http://www.w3.org/2000/svg" p-id="1301" xmlns:xlink="http://www.w3.org/1999/xlink" width="200" height="200"><defs><style type="text/css"></style></defs><path d="M512 512m-512 0a512 512 0 1 0 1024 0 512 512 0 1 0-1024 0Z" fill="#13227a" p-id="1302"></path><path d="M813.632 98.368A509.552 509.552 0 0 1 912 400c0 282.768-229.232 512-512 512a509.552 509.552 0 0 1-301.632-98.368C191.488 941.12 342.032 1024 512 1024c282.768 0 512-229.232 512-512 0-169.968-82.88-320.512-210.368-413.632z" fill="#13227a" p-id="1303"></path><path d="M720.752 128.432s7.968-29.312 10.736-50.176c9.616-4.544 48.384 22.304 81.216 56.704-22.176 82.128-73.888 77.232-73.888 77.232s-42.688-0.88-37.744-32.864l19.68-50.896zM605.792 178.528c4.944-9.856 17.248-14.8 29.552-19.728 12.32-4.928 0 22.176-2.448 36.944-2.464 14.8-4.944 22.176 12.304 39.44 17.248 17.232-32.016 4.928-44.336-4.944-12.304-9.84 4.928-51.712 4.928-51.712zM382.736 658.816c-2.464 12.288-25.68 41.84-35.52 61.536-9.856 19.68-14.784 27.072-27.104 36.944-12.32 9.84-19.696 27.104-19.696 27.104l3.152 41.856s12.304 27.072 19.712 39.408c7.376 12.32-14.784 78.816-14.784 78.816-21.328-4.096-41.744-9.824-49.152-29.568-7.376-19.696-18.048-19.696-15.584-41.872 2.464-22.144-34.48-49.264-41.856-61.584-7.392-12.304-17.248-29.568-17.248-41.84 0-12.336-27.104-29.584-27.104-29.584s-49.248-22.16-56.64-32.016c-7.408-9.856-14.784-51.696-17.264-68.928-2.448-17.264 7.392-61.616 7.392-61.616s19.696-14.784 7.376-27.072c-12.304-12.32-14.784-44.32-14.784-44.32l-22.16-24.608s-17.232-24.672-19.712-36.96c-2.448-12.288 0-19.728 2.48-32.032 2.448-12.32-4.928-34.464-4.928-46.8C131.296 140.08 285.632 87.392 285.632 87.392l12.32 51.712s-27.088 7.392-41.872 2.448c-14.784-4.912-22.176-4.912-22.176-4.912l-19.696 27.088s-7.392 17.232-9.856 27.088c-2.448 9.856 4.928 24.608 4.928 24.608s34.48 2.464 34.48-7.392c0-9.84-4.928-14.768-4.928-14.768l-4.928-17.248s22.16-12.304 81.296-7.36c59.104 4.896 36.928 46.768 61.552 56.624 24.624 9.872-19.696 44.304-29.536 64.032-9.856 19.712-24.64-24.608-24.64-24.608s14.784-17.264-9.856-22.16c-24.624-4.96-29.536 27.04-17.232 24.608 12.304-2.448 14.784 14.768 12.304 27.104-2.448 12.304-2.448 27.056-14.784 54.176-12.304 27.072-59.104 27.072-59.104 27.072s7.392 12.352 14.784 27.088c7.376 14.784-2.464 49.264-2.464 59.12 0 9.84-29.552-17.232-34.464-41.872-4.944-24.64-19.712-15.6-29.568-13.136-9.856 2.48-41.872 9.84-46.8-2.448-4.928-12.32-49.248 22.976-61.584 30.352-12.304 7.392-7.376 27.104 12.336 17.248 19.696-9.856 36.944-2.448 32.016 17.232-4.928 19.728-24.64 7.424-22.16 19.728 2.448 12.304 22.16 24.656 27.072 41.888 4.928 17.232 51.728-7.376 66.512-14.768 14.768-7.408 56.64-14.816 61.552 4.912 4.928 19.68 60.16 36.96 77.424 41.856 17.248 4.96 51.696 7.392 71.408 27.104 19.712 19.696-14.752 56.624-17.232 69.008z" fill="#B7D777" p-id="1304"></path><path d="M308.496 944.464s6.384-19.184 11.152-38.848a507.648 507.648 0 0 1-75.008-17.888c2.704 9.056 9.488 13.232 14.704 27.168 7.408 19.744 27.808 25.472 49.152 29.568z" fill="#84BD5A" p-id="1305"></path><path d="M485.12 82.448c-2.448 24.672-45.136 61.584-40.208 71.424 4.912 9.856 3.264 86.224-31.216 49.264-34.48-36.976-68.96-88.672-66.496-113.296 0.496-4.944 1.056-12.72 1.648-21.296 52.272-48.512 170.272-38.592 176.496-27.136-14.784 24.64-37.744 16.432-40.224 41.04zM541.76 227.76c-7.376-12.336 17.232-19.728 17.232-19.728 34.496 7.392 21.36 32.048 18.88 41.872-2.448 9.872-28.704-9.808-36.112-22.144zM930.912 521.664s18.96 27.968 45.984 26.288c-17.76 205.952-189.648 338.224-189.648 338.224-26.288-26.224-13.136-49.216-13.136-49.216l15.84-39.424 4.096-66.48s-8.448-68.976-74.144-36.144c-70.592 18.08-41.024 26.496-112.432 31.472-71.44 4.88-44.368-139.008-44.368-139.008-4.096-59.12 6.56-44.336 6.56-90.32 0-45.952 151.088-19.696 151.088-19.696 98.512 65.68 111.648-14.8 111.648-14.8l72.224-26.272 6.576-32.848-39.408-45.936-59.104-26.304s-27.104 17.248 0 59.12c0 0-9.04 47.616-31.2 35.28l-60.736-74.704s-20.528 35.312-53.376 55.008c-32.816 19.696-88.672-0.832-88.672-0.832s-18.032-55.792 16.448-73.056l50.896-0.816s-10.688-28.736-4.112-55.008c6.56-26.288 21.344-3.264 47.616-22.976 26.288-19.712 44.336 38.56 83.744 32.016 39.408-6.576 19.696-13.136 45.984-26.288 26.272-13.136 45.968 26.288 45.968 26.288l52.56 6.544s-33.68-89.856-45.6-101.936a5.968 5.968 0 0 0-3.664 0.16c0.64-2.096 1.92-1.936 3.664-0.16 30.56 5.664 136.064 186.48 104.944 294.768-10.88-4.848-19.936-8.928-19.936-8.928H891.52l39.392 45.984z" fill="#B7D777" p-id="1306"></path><path d="M930.912 521.664l-26.992-31.472a509.968 509.968 0 0 1-110.48 237.408c0.432 2.112 0.608 3.44 0.608 3.44l-4.096 66.48-15.84 39.424s-13.152 23.008 13.136 49.216c0 0 171.872-132.272 189.648-338.224-27.04 1.696-45.984-26.272-45.984-26.272zM868.512 190.016a6.24 6.24 0 0 1 3.664-0.16c-1.76-1.776-3.04-1.936-3.664 0.16zM912 400c0 25.728-1.952 50.992-5.616 75.696h50.8s9.04 4.08 19.936 8.928c31.12-108.288-74.384-289.088-104.944-294.768 11.92 12.08 45.6 101.936 45.6 101.936l-18.096-2.256c7.84 35.616 12.32 72.496 12.32 110.464z" fill="#84BD5A" p-id="1307"></path></svg>