<?xml version="1.0" standalone="no"?><!DOCTYPE svg PUBLIC "-//W3C//DTD SVG 1.1//EN" "http://www.w3.org/Graphics/SVG/1.1/DTD/svg11.dtd"><svg t="1562926914377" class="icon" viewBox="0 0 1024 1024" version="1.1" xmlns="http://www.w3.org/2000/svg" p-id="1107" xmlns:xlink="http://www.w3.org/1999/xlink" width="200" height="200"><defs><style type="text/css"></style></defs><path d="M512 512m-416 0a416 416 0 1 0 832 0 416 416 0 1 0-832 0Z" fill="#E6FBFF" p-id="1108"></path><path d="M512 954c-59.7 0-117.5-11.7-172.1-34.7-52.6-22.3-99.9-54.1-140.5-94.7-40.6-40.6-72.4-87.8-94.7-140.5C81.7 629.5 70 571.7 70 512c0-59.7 11.7-117.5 34.7-172.1 22.3-52.6 54.1-99.9 94.7-140.5 40.6-40.6 87.8-72.4 140.5-94.7C394.5 81.7 452.3 70 512 70c59.7 0 117.5 11.7 172.1 34.7 52.6 22.3 99.9 54.1 140.5 94.7 40.6 40.6 72.4 87.8 94.7 140.5 23 54.6 34.7 112.4 34.7 172.1 0 59.7-11.7 117.5-34.7 172.1-22.3 52.6-54.1 99.9-94.7 140.5-40.6 40.6-87.8 72.4-140.5 94.7-54.6 23-112.4 34.7-172.1 34.7z m0-832c-215 0-390 175-390 390s175 390 390 390 390-175 390-390-175-390-390-390z" fill="#8a8a8a" p-id="1109"></path><path d="M512 772c-143.4 0-260-116.6-260-260s116.6-260 260-260 260 116.6 260 260-116.6 260-260 260z" fill="#8a8a8a" p-id="1110"></path></svg>